<?xml version="1.0" standalone="no"?>
<!DOCTYPE svg PUBLIC "-//W3C//DTD SVG 20010904//EN"
 "http://www.w3.org/TR/2001/REC-SVG-20010904/DTD/svg10.dtd">
<svg version="1.0" xmlns="http://www.w3.org/2000/svg"
 width="1565.000000pt" height="1565.000000pt" viewBox="0 0 1565.000000 1565.000000"
 preserveAspectRatio="xMidYMid meet">
<metadata>
Created by potrace 1.14, written by Peter Selinger 2001-2017
</metadata>
<g transform="translate(0.000000,1565.000000) scale(0.100000,-0.100000)"
fill="#000000" stroke="none">
<path d="M7677 15444 c-1 -1 -56 -4 -122 -8 -159 -7 -250 -15 -380 -32 -16 -2
-50 -6 -75 -9 -25 -3 -70 -10 -100 -15 -30 -5 -73 -12 -95 -15 -111 -16 -532
-118 -605 -146 -14 -5 -34 -11 -45 -13 -51 -10 -411 -144 -540 -201 -111 -49
-414 -204 -513 -261 -185 -109 -484 -313 -607 -415 -11 -10 -65 -54 -120 -100
-141 -116 -470 -450 -596 -604 -335 -410 -587 -837 -767 -1300 l-20 -50 -80
-17 c-44 -9 -96 -19 -116 -22 -19 -3 -55 -10 -78 -15 -41 -9 -66 -14 -133 -26
-16 -3 -86 -17 -155 -30 -69 -13 -138 -27 -155 -29 -16 -3 -39 -7 -50 -10 -11
-2 -36 -6 -55 -10 -43 -8 -60 -11 -185 -36 -55 -11 -111 -21 -125 -24 -14 -2
-99 -18 -190 -36 -91 -17 -176 -34 -190 -36 -14 -2 -45 -9 -70 -14 -25 -5 -94
-19 -155 -30 -60 -12 -119 -23 -130 -26 -24 -5 -58 -12 -100 -19 -163 -30
-353 -112 -520 -225 -290 -197 -524 -540 -571 -836 -3 -21 -8 -42 -10 -46 -8
-13 -18 -156 -17 -253 0 -90 5 -271 18 -690 4 -140 12 -381 20 -655 6 -200 14
-472 20 -675 6 -206 14 -474 20 -650 2 -71 7 -229 10 -350 3 -121 8 -274 10
-340 2 -66 7 -210 10 -320 3 -110 7 -267 10 -350 6 -210 15 -474 20 -645 3
-80 7 -230 10 -335 3 -104 7 -251 10 -325 2 -74 7 -232 10 -350 3 -118 8 -276
10 -350 2 -74 7 -223 10 -330 3 -107 8 -249 10 -315 2 -66 7 -219 10 -340 3
-121 8 -281 10 -355 3 -74 7 -218 10 -320 3 -102 8 -250 10 -330 5 -151 11
-377 20 -690 8 -309 15 -421 31 -520 55 -346 276 -673 589 -872 108 -68 229
-121 361 -158 175 -49 82 -48 3199 -50 7692 -4 9694 -4 9747 3 568 68 1031
485 1142 1030 19 91 25 164 31 357 2 85 7 227 10 315 7 205 14 439 20 635 5
166 11 374 20 640 6 192 13 419 20 645 3 88 7 230 10 315 7 214 15 466 20 650
3 85 7 225 10 310 3 85 8 229 10 320 3 91 7 228 10 305 2 77 7 228 10 335 4
107 8 251 10 320 2 69 7 206 10 305 3 99 7 245 10 325 3 80 7 224 10 320 3 96
7 245 10 330 8 223 13 398 20 620 3 107 8 251 10 320 2 69 7 206 10 305 3 99
8 239 10 310 6 200 15 485 20 640 2 77 7 228 11 335 13 376 8 484 -30 660 -26
118 -110 304 -193 427 -57 86 -211 251 -294 316 -105 82 -330 203 -424 228
-16 4 -64 17 -105 29 -60 17 -279 60 -670 134 -34 6 -174 34 -235 46 -27 6
-59 12 -70 14 -44 8 -91 16 -115 21 -32 6 -127 25 -160 31 -14 3 -70 14 -125
25 -55 11 -113 22 -130 25 -25 4 -135 25 -255 49 -14 3 -38 8 -55 11 -16 3
-63 12 -104 20 -41 9 -82 16 -92 17 -12 1 -24 17 -35 47 -17 48 -27 70 -68
163 -14 32 -26 60 -26 63 0 15 -174 353 -237 459 -120 203 -337 513 -453 645
-150 172 -155 178 -275 300 -149 152 -215 213 -400 365 -536 440 -1260 801
-1955 975 -155 39 -371 83 -465 96 -27 3 -52 8 -55 9 -3 2 -35 7 -70 10 -36 4
-67 8 -70 10 -3 2 -43 6 -89 10 -47 4 -93 8 -103 10 -45 9 -593 26 -601 19z"/>
</g>
</svg>
